# xmcd CD database file
#
# Track frame offsets:
#	150
#	29448
#	50500
#	85698
#	108463
#	124018
#	138335
#	168186
#	195175
#	215449
#
# Disc length: 3441 seconds
#
# Revision: 0
# Processed by: cddbd v1.5.2PL0 Copyright (c) Steve Scherf et al.
# Submitted via: CDex 1.51
#
DISCID=7e0d6f0a
DTITLE=Weather Report - Black Market
DYEAR=1976
DGENRE=Jazz
TTITLE0=Black Market
TTITLE1=Cannon Ball
TTITLE2=Gibraltar
TTITLE3=Elegant People
TTITLE4=Three Clowns
TTITLE5=Barbary Coast
TTITLE6=Herandnu
TTITLE7=Portrait of Tracy
TTITLE8=Elegant People
TTITLE9=Black Market
EXTD=YEAR: 1976
EXTT0=
EXTT1=
EXTT2=
EXTT3=
EXTT4=
EXTT5=
EXTT6=
EXTT7=
EXTT8=
EXTT9=
PLAYORDER=
